<svg width="48" height="48" viewBox="0 0 48 48" fill="none" xmlns="http://www.w3.org/2000/svg">
<path fill-rule="evenodd" clip-rule="evenodd" d="M38.2091 48H9.79093C4.40323 48 0 43.5912 0 38.2074V9.79258C0 4.40878 4.4092 0 9.79093 0H38.2091C43.5968 0 48 4.40878 48 9.79258V38.2074C48.006 43.5912 43.5968 48 38.2091 48Z" fill="#42CE9F"/>
<path fill-rule="evenodd" clip-rule="evenodd" d="M21.1588 20.4481C21.1409 24.433 21.1289 28.3088 21.1409 30.6222C24.6074 30.4285 26.3376 29.732 27.692 28.0969C28.6526 26.9462 28.8614 25.62 28.2767 24.3603C27.5011 22.7373 25.2577 21.0235 21.1588 20.4481ZM18.8736 35.3157C18.2591 35.3157 17.6624 35.0674 17.2328 34.6313C16.5527 33.9409 16.5408 33.2869 16.5229 32.0939C16.5109 31.5004 16.5049 30.6646 16.5049 29.6654C16.493 27.9152 16.505 25.4867 16.5169 22.4466C16.5348 17.2142 16.5766 12 16.5766 12L21.2065 12.0303C21.1946 13.2778 21.1886 14.5254 21.1767 15.785C26.6598 16.4209 30.7707 18.7888 32.4592 22.4103C33.8136 25.293 33.3542 28.5269 31.242 31.0704C27.9724 34.9826 23.3365 35.3096 18.8736 35.3157Z" fill="white"/>
</svg>
